<?xml version="1.0" encoding="utf-8"?>
<!-- Generator: Adobe Illustrator 19.2.1, SVG Export Plug-In . SVG Version: 6.00 Build 0)  -->
<svg version="1.1" id="layer" xmlns="http://www.w3.org/2000/svg" xmlns:xlink="http://www.w3.org/1999/xlink" x="0px" y="0px"
	 viewBox="0 0 652 652" style="enable-background:new 0 0 652 652;" xml:space="preserve">
<style type="text/css">
	.st0{fill:#002A5E;}
</style>
<g>
	<path class="st0" d="M287.6,304.6l-1.9,15.6c-2.8-1-5.7-1.5-8.3-1.5c-6.3,0-11.7,3-15.8,8.1v46.5h-16.4v-68.3h11.3l3.8,7.4
		c4.2-5.1,10.4-9,18.8-9.1C281.9,303.4,284.7,303.7,287.6,304.6 M537.3,312.5l-3.8-7.4h-11.3v68.3h16.4v-46.5
		c4.1-5,9.4-8.1,15.8-8.1c2.7,0,5.5,0.5,8.3,1.5l1.9-15.6c-2.9-0.9-5.8-1.2-8.4-1.2C547.6,303.5,541.5,307.4,537.3,312.5
		 M206.9,303.4c-7.7,0-14.8,3.1-20.7,8.3v-43.8l-16.4,3.9v101.6h16.4v-45.6c4-4.9,9.9-8.9,16.3-8.9c10.1,0,15.9,6.2,15.9,21.2v33.2
		h16.3v-33.8C234.7,318.9,225.7,303.4,206.9,303.4 M134.8,359.4c-10.4,0-19.2-8.4-19.2-20.3c0-11.8,8.4-20,18.8-20
		c6,0,12,3.3,16.2,8.8l12.2-10.4c-6.4-8.3-15.7-14.1-28.1-14.1c-20.7,0-35.9,16-35.9,35.9c0,21.1,16.1,35.9,35.9,35.9
		c11.6,0,22.1-5.4,28.8-13.3l-11.8-10.5C146.8,356.8,142,359.4,134.8,359.4 M64.7,314.5c-1.6-0.4-6-1.5-8.7-2.2
		c-9.9-2.3-16.1-5.3-16.1-12.1c0-6.3,6.3-12.1,15.8-12.1c8.5,0,15,4.2,20.5,11.8l12.4-11.4c-6.1-8-15.6-16.7-32.6-16.7
		c-18.5,0-34,12.7-34,29.7c0,13.4,8.5,22.8,26.5,27.1c2.6,0.6,6.5,1.6,9.2,2.3c11.1,2.9,15.5,7.9,15.5,14.2
		c0,7.9-7.7,13.4-16.1,13.4c-7.5,0-16.5-2.7-22.3-14.5l-14.5,8.8c4.8,11.3,18.1,22.4,36.1,22.4c20.7,0,35.1-14,35.1-30.1
		C91.5,329.5,82.1,319,64.7,314.5 M598.4,332.2c-9.3-2.1-15-4.4-15-8.7c0-4,4.3-6.4,10.3-6.4c5.4,0,11.8,3.4,14.6,8.2l10.4-9.3
		c-4-6.2-12.7-12.6-25-12.6c-12.8,0-25.7,8.1-25.7,20.8c0,11.9,9.3,17.7,25.9,21.6c6.2,1.5,11.1,3.8,11.1,8.2
		c0,3.9-3.5,7.1-10.2,7.1c-7.6,0-14-2.9-19-9.7l-10.5,9.4c5.9,8.9,17.4,14.4,29.9,14.4c14.4,0,25-9.6,25-21.6
		C620.3,341.2,610.1,334.9,598.4,332.2 M287.2,339.3c0,18.9,14.2,34.2,33.5,35.8v-15.4c-10.1-1.6-16.8-10.3-16.8-20.4
		c0-10.8,7.1-19,16.8-20.6v-15.4C301.4,305,287.2,320.4,287.2,339.3 M327.5,303.4v15.4c9.7,1.6,16.8,9.8,16.8,20.6
		c0,10.1-6.8,18.8-16.8,20.4v15.4c19.3-1.6,33.5-16.9,33.5-35.8C361,320.4,346.8,305,327.5,303.4 M437.3,356l3.9,17.4h-14.9
		l-3.5-6.5c-5.2,4.6-12.4,8.2-21.2,8.2c-19.2,0-33.6-15.8-33.6-35.9c0-20.8,15.9-35.9,34.8-35.9c6.9,0,13.1,2.5,18.1,6.3v-37.9
		l16.4-3.9V356z M421,324.5c-4.2-3.7-9.7-6.1-16.5-6.1c-10.9,0-19.9,9-19.9,20.6c0,13.3,9.4,21.2,19.6,21.2c6.4,0,12.5-2.9,16.8-7.2
		V324.5z M513.8,339.2c0,1.9-0.1,4.6-0.1,4.6h-51.2c1.4,9.8,9.3,16.7,19.3,16.7c7.3,0,13.5-3,18.1-8.5l11,9.7
		c-6.7,7.9-16.6,13.3-28.8,13.3c-19.8,0-35.9-15.1-35.9-36.2c0-19.8,15.1-35.5,34.9-35.5C500.1,303.4,513.8,319.3,513.8,339.2
		 M496.8,331.6c-1.1-6.7-7.3-13.7-16.7-13.7c-8.4,0-15.1,6-17.2,13.7H496.8z"/>
</g>
</svg>
